<?xml version="1.0" standalone="no"?>
<!DOCTYPE svg PUBLIC "-//W3C//DTD SVG 20010904//EN"
 "http://www.w3.org/TR/2001/REC-SVG-20010904/DTD/svg10.dtd">
<svg version="1.0" xmlns="http://www.w3.org/2000/svg"
 width="211.000000pt" height="239.000000pt" viewBox="0 0 211.000000 239.000000"
 preserveAspectRatio="xMidYMid meet">

<g transform="translate(0.000000,239.000000) scale(0.100000,-0.100000)"
fill="#000000" stroke="none">
<path d="M920 2287 l-125 -72 -3 -151 -3 -151 131 -72 131 -73 112 63 c62 34
120 67 130 73 15 10 17 29 17 163 l0 152 -124 70 c-68 39 -127 71 -132 71 -5
0 -65 -33 -134 -73z m221 -34 c44 -25 82 -49 84 -53 2 -4 -17 -19 -43 -33 -26
-15 -65 -38 -88 -51 l-40 -25 -93 53 -92 54 88 51 c48 28 91 51 96 51 4 0 44
-21 88 -47z m119 -200 l0 -108 -85 -47 c-47 -27 -87 -48 -90 -48 -3 0 -5 47
-5 104 l0 104 88 50 c48 28 88 51 90 51 1 1 2 -47 2 -106z m-315 49 l80 -48 3
-102 c1 -56 0 -102 -4 -102 -3 0 -44 21 -90 48 l-84 47 0 103 c0 56 3 102 8
102 4 -1 43 -22 87 -48z"/>
<path d="M179 1866 c-58 -34 -117 -69 -132 -79 l-28 -18 3 -146 3 -145 130
-75 129 -74 41 22 c22 13 81 46 130 75 l90 52 3 148 2 149 -57 33 c-32 17 -92
52 -134 75 l-76 44 -104 -61z m197 -53 c46 -27 84 -51 84 -55 0 -6 -163 -101
-175 -101 -12 0 -175 95 -175 101 0 8 160 101 174 102 4 0 46 -21 92 -47z
m-183 -158 l67 -39 0 -103 c0 -57 -2 -103 -4 -103 -2 0 -42 22 -88 48 l-83 48
-3 108 -3 109 23 -15 c13 -8 53 -32 91 -53z m297 -43 l0 -108 -90 -51 -90 -52
0 108 0 107 88 51 c48 29 88 52 90 53 1 0 2 -49 2 -108z"/>
<path d="M662 1870 c-57 -32 -103 -62 -102 -66 7 -38 19 -35 116 21 54 31 100
58 102 59 1 2 -1 12 -5 24 -8 19 -13 17 -111 -38z"/>
<path d="M1340 1915 c0 -7 -6 -15 -12 -18 -7 -2 -11 -6 -8 -9 12 -12 211 -120
214 -117 2 2 6 12 8 23 2 14 -20 31 -99 77 -66 37 -103 53 -103 44z"/>
<path d="M1683 1848 l-123 -70 0 -152 0 -151 118 -67 c64 -37 124 -70 133 -73
9 -3 67 24 142 67 l127 72 0 152 0 153 -124 70 c-68 39 -130 71 -137 70 -8 0
-69 -32 -136 -71z m228 -35 c49 -27 89 -50 89 -53 0 -10 -169 -102 -182 -98
-19 5 -178 92 -178 98 0 6 161 97 174 99 4 1 48 -20 97 -46z m-200 -145 l89
-52 0 -103 c0 -57 -3 -103 -6 -103 -4 0 -46 23 -95 51 l-89 51 0 104 c0 57 3
104 6 104 3 0 46 -23 95 -52z m315 -153 c-4 -12 -162 -105 -178 -105 -5 0 -7
46 -6 102 l3 102 90 54 90 53 3 -98 c1 -53 1 -102 -2 -108z"/>
<path d="M1030 1679 c0 -64 1 -66 25 -66 24 0 25 2 25 67 0 66 -1 68 -25 66
-24 -1 -25 -4 -25 -67z"/>
<path d="M877 1488 l-177 -101 2 -199 3 -200 105 -60 c58 -33 137 -77 175 -98
l70 -39 170 97 170 98 0 203 0 203 -130 75 c-71 41 -148 85 -170 98 l-41 23
-177 -100z m294 -55 c65 -38 119 -71 119 -74 0 -4 -53 -37 -117 -74 l-118 -67
-40 21 c-134 71 -207 119 -194 127 21 14 224 132 228 133 2 1 57 -29 122 -66z
m-257 -189 l116 -66 0 -139 c0 -77 -3 -139 -7 -139 -4 0 -60 30 -125 67 l-118
67 0 138 c0 76 4 138 9 138 4 0 61 -30 125 -66z m406 -73 l0 -139 -113 -66
c-63 -36 -117 -66 -121 -66 -3 0 -5 64 -4 141 l3 142 110 63 c61 35 113 63
118 64 4 0 7 -63 7 -139z"/>
<path d="M570 1477 c0 -9 -5 -17 -12 -19 -10 -4 103 -78 118 -78 2 0 4 7 4 15
0 8 5 15 12 15 18 0 0 14 -64 50 -44 24 -58 28 -58 17z"/>
<path d="M1468 1454 c-52 -31 -56 -37 -46 -54 12 -18 14 -18 68 12 30 17 56
32 57 33 5 3 -10 45 -16 44 -3 0 -32 -16 -63 -35z"/>
<path d="M260 1190 l0 -117 25 0 25 0 0 117 0 118 -25 0 -25 0 0 -118z"/>
<path d="M1800 1189 c0 -112 1 -119 20 -119 19 0 20 7 20 118 0 111 -1 118
-20 119 -19 2 -20 -4 -20 -118z"/>
<path d="M152 973 l-132 -76 0 -147 0 -147 128 -73 c70 -40 132 -73 137 -73 6
0 67 33 138 73 l127 73 0 147 0 148 -127 72 c-71 40 -131 74 -134 76 -3 2 -65
-31 -137 -73z m241 -47 c37 -21 67 -41 67 -44 0 -10 -169 -104 -178 -100 -28
12 -163 91 -167 97 -3 5 34 31 83 59 76 44 90 48 107 38 11 -7 50 -30 88 -50z
m-153 -176 c19 -14 20 -25 18 -117 l-3 -102 -85 48 -85 48 -3 108 -3 107 71
-39 c38 -21 79 -45 90 -53z m229 -130 c-12 -8 -53 -32 -91 -53 l-69 -38 3 107
3 107 85 48 85 49 3 -103 c3 -96 2 -103 -19 -117z"/>
<path d="M1690 975 l-125 -73 0 -152 0 -152 128 -73 128 -73 127 73 127 73 2
153 3 154 -126 70 c-69 39 -129 71 -133 72 -3 0 -62 -32 -131 -72z m208 -32
c116 -64 115 -54 17 -112 -48 -28 -89 -51 -92 -51 -3 0 -46 23 -95 51 l-90 52
83 48 c46 27 90 49 97 49 8 0 44 -17 80 -37z m-188 -156 l85 -52 3 -102 c1
-57 1 -103 -2 -103 -3 0 -45 23 -95 52 l-91 52 0 103 c0 57 3 103 8 102 4 0
45 -24 92 -52z m320 -51 l0 -104 -89 -50 c-50 -27 -92 -47 -95 -44 -3 3 -6 47
-6 97 0 74 3 95 16 106 22 18 157 98 167 99 4 0 7 -47 7 -104z"/>
<path d="M620 969 c-61 -33 -81 -49 -62 -49 7 0 12 -7 12 -15 0 -8 2 -15 4
-15 15 0 126 74 118 79 -5 3 -11 11 -13 18 -3 8 -22 3 -59 -18z"/>
<path d="M1422 980 c-10 -17 -5 -23 49 -56 33 -20 62 -35 63 -33 2 2 6 13 10
24 4 16 -5 26 -52 52 -55 30 -59 31 -70 13z"/>
<path d="M1030 700 c0 -65 1 -67 25 -67 24 0 25 2 25 67 0 65 -1 68 -25 68
-24 0 -25 -3 -25 -68z"/>
<path d="M570 596 c0 -8 -5 -16 -10 -18 -6 -2 38 -31 97 -65 103 -60 108 -62
116 -41 4 11 6 22 5 23 -15 11 -198 115 -202 115 -3 0 -6 -6 -6 -14z"/>
<path d="M920 535 l-125 -73 -3 -149 -3 -150 132 -75 132 -75 71 40 c39 21 97
55 129 74 l57 34 0 152 -1 152 -128 73 c-71 39 -131 72 -132 71 -2 0 -60 -34
-129 -74z m226 -36 c100 -59 101 -51 -22 -120 l-72 -39 -91 54 -92 53 88 51
c48 28 91 51 95 51 3 1 45 -22 94 -50z m-201 -147 l80 -48 3 -102 c2 -62 -1
-102 -7 -102 -5 0 -46 21 -90 47 l-81 47 0 103 c0 57 3 103 8 103 4 0 43 -22
87 -48z m315 -56 l0 -104 -82 -47 c-46 -26 -86 -50 -90 -52 -5 -2 -8 44 -8
104 l1 108 82 47 c45 26 85 48 90 48 4 0 7 -47 7 -104z"/>
<path d="M1432 556 c-98 -56 -125 -76 -104 -76 7 0 12 -7 12 -16 0 -13 4 -13
33 4 17 11 64 38 104 61 58 33 70 44 66 61 -3 11 -8 20 -12 20 -3 0 -48 -25
-99 -54z"/>
</g>
</svg>
